<?xml version="1.0" encoding="UTF-8"?>
<svg width="16px" height="16px" viewBox="0 0 16 16" version="1.1" xmlns="http://www.w3.org/2000/svg" xmlns:xlink="http://www.w3.org/1999/xlink">
    <!-- Generator: Sketch 49.3 (51167) - http://www.bohemiancoding.com/sketch -->
    <title>Group 2</title>
    <desc>Created with Sketch.</desc>
    <defs></defs>
    <g id="Page-1" stroke="none" stroke-width="1" fill="none" fill-rule="evenodd">
        <g id="Theme's" transform="translate(-83.000000, -632.000000)" fill="#3C3C3C">
            <g id="Group" transform="translate(83.000000, 628.000000)">
                <g id="Group-2" transform="translate(0.000000, 4.000000)">
                    <path d="M10.6599193,9.69553965 C10.9533602,9.96646175 10.9533602,10.4057996 10.6599193,10.6767217 C10.5131988,10.8121828 10.3210156,10.88 10.1286446,10.88 C9.93627357,10.88 9.74409041,10.8121828 9.59736993,10.6767217 L7.26017465,8.51923124 C7.1192779,8.389147 7.04,8.21257933 7.04,8.02855349 L7.04,3.89378261 C7.04,3.51064116 7.37646144,3.2 7.79144933,3.2 C8.20643722,3.2 8.54289866,3.51064116 8.54289866,3.89378261 L8.54289866,7.74115405 L10.6599193,9.69553965 Z M8,14.72 C4.29462737,14.72 1.28,11.7053726 1.28,8 C1.28,4.29462737 4.29462737,1.28 8,1.28 C11.7055495,1.28 14.72,4.29462737 14.72,8 C14.72,11.7053726 11.7055495,14.72 8,14.72 L8,14.72 Z M8,0 C3.58886957,0 0,3.58886957 0,8 C0,12.4111304 3.58886957,16 8,16 C12.4113043,16 16,12.4111304 16,8 C16,3.58886957 12.4113043,0 8,0 L8,0 Z" id="clock"></path>
                </g>
            </g>
        </g>
    </g>
</svg>