<?xml version="1.0" encoding="UTF-8"?>
<svg width="5px" height="4px" viewBox="0 0 5 4" version="1.1" xmlns="http://www.w3.org/2000/svg" xmlns:xlink="http://www.w3.org/1999/xlink">
    <!-- Generator: Sketch 50.2 (55047) - http://www.bohemiancoding.com/sketch -->
    <title>Group</title>
    <desc>Created with Sketch.</desc>
    <defs></defs>
    <g id="Page-1" stroke="none" stroke-width="1" fill="none" fill-rule="evenodd">
        <g id="list" fill="#000000">
            <g id="Group">
                <path d="M0,0 C0.324807,0 0.649514,0 0.974321,0 C0.974321,0.303606 0.974321,0.607113 0.974321,0.910619 C0.649514,0.910619 0.324807,0.910619 0,0.910619 C0,0.607113 0,0.303606 0,0 Z" id="Shape"></path>
                <path d="M1.45873,0.156103 C2.55295,0.156103 3.64718,0.156103 4.7414,0.156103 C4.7414,0.355607 4.7414,0.555011 4.7414,0.754616 C3.64718,0.754616 2.55295,0.754616 1.45873,0.754616 C1.45873,0.555012 1.45873,0.355608 1.45873,0.156103 Z" id="Shape"></path>
                <path d="M0,1.36513 C0.324807,1.36513 0.649514,1.36513 0.974321,1.36513 C0.974321,1.668636 0.974321,1.972243 0.974321,2.275749 C0.649514,2.275749 0.324807,2.275749 0,2.275749 C0,1.972243 0,1.668636 0,1.36513 Z" id="Shape"></path>
                <path d="M1.45873,1.52123 C2.55295,1.52123 3.64718,1.52123 4.7414,1.52123 C4.7414,1.720734 4.7414,1.920138 4.7414,2.119643 C3.64718,2.119643 2.55295,2.119643 1.45873,2.119643 C1.45873,1.920139 1.45873,1.720735 1.45873,1.52123 Z" id="Shape"></path>
                <path d="M0,2.73026 C0.324807,2.73026 0.649514,2.73026 0.974321,2.73026 C0.974321,3.033766 0.974321,3.337273 0.974321,3.640879 C0.649514,3.640879 0.324807,3.640879 0,3.640879 C0,3.337273 0,3.033766 0,2.73026 Z" id="Shape"></path>
                <path d="M1.45873,2.88626 C2.55295,2.88626 3.64718,2.88626 4.7414,2.88626 C4.7414,3.085864 4.7414,3.285268 4.7414,3.484773 C3.64718,3.484773 2.55295,3.484773 1.45873,3.484773 C1.45873,3.285269 1.45873,3.085865 1.45873,2.88626 Z" id="Shape"></path>
            </g>
        </g>
    </g>
</svg>