<svg xmlns="http://www.w3.org/2000/svg" xmlns:xlink="http://www.w3.org/1999/xlink" xml:space="preserve" style="shape-rendering:geometricPrecision;text-rendering:geometricPrecision;image-rendering:optimizeQuality;" viewBox="0 0 4.7414 4.5511" x="0px" y="0px" fill-rule="evenodd" clip-rule="evenodd"><defs><style type="text/css">
   
    .fil0 {fill:black}
   
  </style></defs><g><path class="fil0" d="M-0 0c0.324807,0 0.649514,0 0.974321,0 0,0.303606 0,0.607113 0,0.910619 -0.324807,0 -0.649514,0 -0.974321,0 0,-0.303506 0,-0.607013 0,-0.910619z"/><path class="fil0" d="M1.45873 0.156103c1.09422,0 2.18845,0 3.28267,0 0,0.199504 0,0.398908 0,0.598513 -1.09422,0 -2.18845,0 -3.28267,0 0,-0.199604 0,-0.399008 0,-0.598513z"/><path class="fil0" d="M-0 1.36513c0.324807,0 0.649514,0 0.974321,0 0,0.303506 0,0.607113 0,0.910619 -0.324807,0 -0.649514,0 -0.974321,0 0,-0.303506 0,-0.607113 0,-0.910619z"/><path class="fil0" d="M1.45873 1.52123c1.09422,0 2.18845,0 3.28267,0 0,0.199504 0,0.398908 0,0.598413 -1.09422,0 -2.18845,0 -3.28267,0 0,-0.199504 0,-0.398908 0,-0.598413z"/><path class="fil0" d="M-0 2.73026c0.324807,0 0.649514,0 0.974321,0 0,0.303506 0,0.607013 0,0.910619 -0.324807,0 -0.649514,0 -0.974321,0 0,-0.303606 0,-0.607113 0,-0.910619z"/><path class="fil0" d="M1.45873 2.88626c1.09422,0 2.18845,0 3.28267,0 0,0.199604 0,0.399008 0,0.598513 -1.09422,0 -2.18845,0 -3.28267,0 0,-0.199504 0,-0.398908 0,-0.598513z"/></g><text x="0" y="18.64088" fill="#000000" font-size="5px" font-weight="bold" font-family="'Helvetica Neue', Helvetica, Arial-Unicode, Arial, Sans-serif">Created by Mahabbah</text><text x="0" y="23.64088" fill="#000000" font-size="5px" font-weight="bold" font-family="'Helvetica Neue', Helvetica, Arial-Unicode, Arial, Sans-serif">from the Noun Project</text></svg>