<?xml version="1.0" encoding="UTF-8"?>
<svg width="30px" height="31px" viewBox="0 0 30 31" version="1.1" xmlns="http://www.w3.org/2000/svg" xmlns:xlink="http://www.w3.org/1999/xlink">
    <!-- Generator: Sketch 49.3 (51167) - http://www.bohemiancoding.com/sketch -->
    <title>thumbs-down</title>
    <desc>Created with Sketch.</desc>
    <defs></defs>
    <g id="Page-1" stroke="none" stroke-width="1" fill="none" fill-rule="evenodd">
        <g id="iPhone-X" transform="translate(-84.000000, -668.000000)" fill="#DD9293">
            <path d="M109.690557,671.44406 L109.690557,684.602498 C109.690557,685.786342 110.655171,686.74601 111.845279,686.74601 C113.035057,686.74601 114,685.786342 114,684.602498 L114,671.44406 C114,670.260216 113.035057,669.300547 111.845279,669.300547 C110.655171,669.300547 109.690557,670.260216 109.690557,671.44406 L109.690557,671.44406 Z M104.475512,672.340102 C101.959472,671.283511 94.2606946,670.183732 92.798939,670.76527 C92.0265228,671.46384 90.084768,675.858667 88.730155,679.592507 C88.6345508,679.856572 88.4565291,680.083385 88.2224636,680.239648 C87.1266414,680.971845 86.5589501,681.809865 86.6647741,682.539095 C86.7501586,683.126896 87.2812565,683.627994 88.0856507,683.879532 C89.7501532,684.40107 93.8334426,685.301068 93.8746513,685.309969 C94.3388263,685.412167 94.7123421,685.753705 94.8541001,686.205022 C94.9955284,686.65667 94.8834407,687.148867 94.559705,687.495679 C91.5821279,690.686553 91.0543267,693.97336 91.6305894,695.288083 C91.807622,695.691599 91.9915778,695.691599 92.090149,695.691599 C92.7435544,695.691599 93.0491583,695.236984 93.7243219,693.258966 C94.5145403,690.945673 97.2435464,688.184689 100.515189,686.388648 C102.102219,685.517661 103.690898,684.379971 104.475512,683.795796 L104.475512,672.340102 Z M94.4641008,668 C98.555632,668 104.980236,669.354943 106.570892,670.482413 C106.920013,670.729995 107.127375,671.130214 107.127375,671.556807 L107.127375,684.448212 C107.127375,684.851728 106.941771,685.232826 106.62364,685.483046 C106.526387,685.559529 104.212105,687.373372 101.795956,688.698644 C98.7956315,690.346004 96.7272836,692.666549 96.2350867,694.107865 C95.626846,695.889401 94.7937706,698.329616 92.090149,698.329616 C90.8070744,698.329616 89.7534499,697.605332 89.1999344,696.342697 C88.0774089,693.782152 89.2596046,690.225675 91.2310297,687.414251 C89.9037793,687.103043 88.2564196,686.698868 87.2898279,686.396231 C85.4895015,685.833155 84.2746685,684.531948 84.0402733,682.916237 C83.7992847,681.25635 84.6475249,679.595803 86.3779614,678.307784 C87.6478493,674.849548 89.869164,669.368129 91.4819083,668.471098 C92.0776216,668.13978 93.1510262,668 94.4641008,668 L94.4641008,668 Z" id="thumbs-down"></path>
        </g>
    </g>
</svg>