<?xml version="1.0" encoding="UTF-8"?>
<svg width="25px" height="22px" viewBox="0 0 25 22" version="1.1" xmlns="http://www.w3.org/2000/svg" xmlns:xlink="http://www.w3.org/1999/xlink">
    <!-- Generator: Sketch 49.3 (51167) - http://www.bohemiancoding.com/sketch -->
    <title>clockwise</title>
    <desc>Created with Sketch.</desc>
    <defs></defs>
    <g id="Page-1" stroke="none" stroke-width="1" fill="none" fill-rule="evenodd">
        <g id="iPhone-X" transform="translate(-177.000000, -668.000000)" fill="#3C3C3C">
            <path d="M201.657853,677.461239 L197.545979,681.637696 C197.322171,681.865076 197.016518,681.993051 196.697473,681.993051 C196.378428,681.993051 196.072775,681.865076 195.848967,681.637696 L191.737093,677.461239 C191.275787,676.99279 191.281739,676.239225 191.750188,675.777621 C192.218637,675.316315 192.972203,675.322267 193.433807,675.791014 L195.732302,678.125223 C195.434089,673.804421 191.887687,670.380935 187.568076,670.380935 C183.053824,670.380935 179.380935,674.1193 179.380935,678.714206 C179.380935,683.30941 183.053824,687.047478 187.568076,687.047478 C189.229671,687.047478 190.828766,686.544505 192.191852,685.592429 C192.731133,685.216241 193.47339,685.348086 193.849577,685.88707 C194.226063,686.426054 194.093921,687.16831 193.554937,687.544796 C191.790069,688.776929 189.719846,689.428413 187.568076,689.428413 C181.741036,689.428413 177,684.622198 177,678.714206 C177,672.806512 181.741036,668 187.568076,668 C193.055833,668 197.578419,672.263361 198.086748,677.694571 L199.961139,675.791014 C200.422743,675.322267 201.176606,675.316612 201.644758,675.777621 C202.113207,676.239225 202.119159,676.99279 201.657853,677.461239" id="clockwise"></path>
        </g>
    </g>
</svg>