<?xml version="1.0" encoding="UTF-8"?>
<svg width="82px" height="82px" viewBox="0 0 82 82" version="1.1" xmlns="http://www.w3.org/2000/svg" xmlns:xlink="http://www.w3.org/1999/xlink">
    <!-- Generator: Sketch 50.2 (55047) - http://www.bohemiancoding.com/sketch -->
    <title>Slice 1</title>
    <desc>Created with Sketch.</desc>
    <defs></defs>
    <g id="Page-1" stroke="none" stroke-width="1" fill="none" fill-rule="evenodd">
        <g id="time" fill="#000000" fill-rule="nonzero">
            <g id="Group">
                <path d="M41,0.5 C18.7,0.5 0.5,18.7 0.5,41 C0.5,63.3 18.7,81.5 41,81.5 C63.3,81.5 81.5,63.3 81.5,41 C81.5,18.7 63.3,0.5 41,0.5 Z M41,73.5 C23.1,73.5 8.5,58.9 8.5,41 C8.5,23.1 23.1,8.5 41,8.5 C58.9,8.5 73.5,23.1 73.5,41 C73.5,58.9 58.9,73.5 41,73.5 Z" id="Shape"></path>
                <polygon id="Shape" points="39.2 39.4 23.4 39.4 23.4 47.4 47.2 47.5 47.2 19.3 39.2 19.3"></polygon>
            </g>
        </g>
    </g>
</svg>