<?xml version="1.0" encoding="UTF-8"?>
<svg width="18px" height="18px" viewBox="0 0 18 18" version="1.1" xmlns="http://www.w3.org/2000/svg" xmlns:xlink="http://www.w3.org/1999/xlink">
    <!-- Generator: Sketch 50.2 (55047) - http://www.bohemiancoding.com/sketch -->
    <title>clock</title>
    <desc>Created with Sketch.</desc>
    <defs></defs>
    <g id="Page-1" stroke="none" stroke-width="1" fill="none" fill-rule="evenodd">
        <g id="Selected" transform="translate(-147.000000, -671.000000)" fill="#3C3C3C">
            <path d="M158.992409,681.907482 C159.32253,682.212269 159.32253,682.706525 158.992409,683.011312 C158.827349,683.163706 158.611143,683.24 158.394725,683.24 C158.178308,683.24 157.962102,683.163706 157.797041,683.011312 L155.167696,680.584135 C155.009188,680.43779 154.92,680.239152 154.92,680.032123 L154.92,675.380505 C154.92,674.949471 155.298519,674.6 155.76538,674.6 C156.232242,674.6 156.610761,674.949471 156.610761,675.380505 L156.610761,679.708798 L158.992409,681.907482 Z M156,687.56 C151.831456,687.56 148.44,684.168544 148.44,680 C148.44,675.831456 151.831456,672.44 156,672.44 C160.168743,672.44 163.56,675.831456 163.56,680 C163.56,684.168544 160.168743,687.56 156,687.56 L156,687.56 Z M156,671 C151.037478,671 147,675.037478 147,680 C147,684.962522 151.037478,689 156,689 C160.962717,689 165,684.962522 165,680 C165,675.037478 160.962717,671 156,671 L156,671 Z" id="clock"></path>
        </g>
    </g>
</svg>