<?xml version="1.0" encoding="UTF-8"?>
<svg width="24px" height="14px" viewBox="0 0 24 14" version="1.1" xmlns="http://www.w3.org/2000/svg" xmlns:xlink="http://www.w3.org/1999/xlink">
    <!-- Generator: Sketch 49.3 (51167) - http://www.bohemiancoding.com/sketch -->
    <title>Shape</title>
    <desc>Created with Sketch.</desc>
    <defs></defs>
    <g id="Page-1" stroke="none" stroke-width="1" fill="none" fill-rule="evenodd">
        <g id="iPhone-X" transform="translate(-110.000000, -416.000000)" fill="#3C3C3C" fill-rule="nonzero">
            <g id="Group-2" transform="translate(41.000000, 400.000000)">
                <g id="noun_1569919_cc" transform="translate(69.000000, 16.000000)">
                    <g id="Group">
                        <path d="M23.9999982,6.95117073 C23.9901159,6.70702439 23.8862453,6.42483902 23.7132335,6.24686829 L18.0661712,0.4417 C17.6835124,0.109012195 16.9497476,-0.0283243902 16.5220535,0.356334146 C16.1007829,0.735187805 16.1133124,1.46994878 16.5329947,1.85030488 L20.5035829,5.92672927 L1.05882176,5.92672927 C0.474068824,5.92672927 -1.76470598e-06,6.3854 -1.76470598e-06,6.95117073 C-1.76470598e-06,7.51694146 0.474068824,7.97559512 1.05882176,7.97559512 L20.5035829,7.97559512 L16.5329947,12.0520195 C16.1716888,12.4021902 16.1049124,13.1628 16.5220535,13.5459902 C16.9390888,13.9291463 17.6992182,13.8067317 18.0661712,13.4605902 L23.7132335,7.65547317 C23.9064688,7.45680976 24.0006335,7.22372683 23.9999982,6.95117073 Z" id="Shape" transform="translate(12.000000, 6.952953) rotate(180.000000) translate(-12.000000, -6.952953) "></path>
                    </g>
                </g>
            </g>
        </g>
    </g>
</svg>