<?xml version="1.0" encoding="UTF-8"?>
<svg width="318px" height="316px" viewBox="0 0 318 316" version="1.1" xmlns="http://www.w3.org/2000/svg" xmlns:xlink="http://www.w3.org/1999/xlink">
    <!-- Generator: Sketch 49.3 (51167) - http://www.bohemiancoding.com/sketch -->
    <title>Group 3</title>
    <desc>Created with Sketch.</desc>
    <defs></defs>
    <g id="Page-1" stroke="none" stroke-width="1" fill="none" fill-rule="evenodd">
        <g id="start-floor" transform="translate(-29.000000, -161.000000)">
            <g id="Group-3" transform="translate(29.000000, 161.000000)">
                <path d="M203,316 L8,316 C3.581722,316 5.41083001e-16,312.418278 0,308 L0,182 C-5.41083001e-16,177.581722 3.581722,174 8,174 L68,174 L68,112 C68,107.581722 71.581722,104 76,104 L89,104 L89,72 L77,72 C72.581722,72 69,68.418278 69,64 L69,23 C69,18.581722 72.581722,15 77,15 L97,15 L102,15 L102,8 C102,3.581722 105.581722,8.11624501e-16 110,0 L203,0 C207.418278,-8.66006284e-15 211,3.581722 211,8 L211,15 L276,15 C280.418278,15 284,18.581722 284,23 L284,111 C284,111.167925 283.994826,111.334642 283.984629,111.5 C283.994826,111.665358 284,111.832075 284,112 L284,137 L295,137 L310,137 C314.418278,137 318,140.581722 318,145 L318,204 C318,208.418278 314.418278,212 310,212 L287,212 C282.581722,212 279,208.418278 279,204 L279,178 L276,178 L258,178 L258,189 C258,193.418278 254.418278,197 250,197 L211,197 L211,222 L240,222 C244.418278,222 248,225.581722 248,230 L248,308 C248,312.418278 244.418278,316 240,316 L203,316 Z" id="Combined-Shape" fill="#E5E5E5"></path>
                <path d="M63,174 L68,174 L68,226.5 C68,227.880712 66.8807119,229 65.5,229 L65.5,229 C64.1192881,229 63,227.880712 63,226.5 L63,174 Z" id="Rectangle-4" fill="#7F7F7F"></path>
                <rect id="Rectangle-4" fill="#7F7F7F" x="63" y="253" width="5" height="36" rx="2.5"></rect>
                <rect id="Rectangle-4" fill="#7F7F7F" x="104" y="214" width="5" height="39" rx="2.5"></rect>
                <rect id="Rectangle-4" fill="#7F7F7F" x="160" y="249" width="5" height="42" rx="2.5"></rect>
                <path d="M213.5,172 L213.5,172 C214.880712,172 216,173.119288 216,174.5 L216,197 L211,197 L211,174.5 C211,173.119288 212.119288,172 213.5,172 Z" id="Rectangle-4" fill="#7F7F7F"></path>
                <rect id="Rectangle-4" fill="#7F7F7F" transform="translate(246.500000, 125.000000) rotate(90.000000) translate(-246.500000, -125.000000) " x="244" y="107" width="5" height="36" rx="2.5"></rect>
                <path d="M276.5,163 L276.5,163 C277.880712,163 279,164.119288 279,165.5 L279,178 L274,178 L274,165.5 C274,164.119288 275.119288,163 276.5,163 Z" id="Rectangle-4" fill="#7F7F7F"></path>
                <rect id="Rectangle-4" fill="#7F7F7F" x="211" y="57" width="5" height="72" rx="2.5"></rect>
                <path d="M106.5,291 L106.5,291 C107.880712,291 109,292.119288 109,293.5 L109,316 L104,316 L104,293.5 C104,292.119288 105.119288,291 106.5,291 Z" id="Rectangle-4" fill="#7F7F7F"></path>
                <path d="M115,116 L144,116 L144,91 C144,88.2385763 146.238576,86 149,86 L172,86 C174.761424,86 177,88.2385763 177,91 L177,121 L177,173 C177,175.761424 174.761424,178 172,178 L109,178 C106.238576,178 104,175.761424 104,173 L104,121 L104,91 C104,88.2385763 106.238576,86 109,86 L110,86 C112.761424,86 115,88.2385763 115,91 L115,116 Z" id="Combined-Shape" fill="#7F7F7F"></path>
                <rect id="Rectangle-3" fill="#7F7F7F" x="104" y="209" width="73" height="14" rx="7"></rect>
                <g id="Group-2" transform="translate(120.000000, 66.000000)">
                    <circle id="Oval-2" fill="#FFFFFF" cx="7" cy="7" r="7"></circle>
                    <circle id="Oval-2" fill="#A482FF" cx="7" cy="7" r="4.74193548"></circle>
                </g>
            </g>
        </g>
    </g>
</svg>