<?xml version="1.0" encoding="UTF-8"?>
<svg width="30px" height="31px" viewBox="0 0 30 31" version="1.1" xmlns="http://www.w3.org/2000/svg" xmlns:xlink="http://www.w3.org/1999/xlink">
    <!-- Generator: Sketch 49.3 (51167) - http://www.bohemiancoding.com/sketch -->
    <title>thumbs-up</title>
    <desc>Created with Sketch.</desc>
    <defs></defs>
    <g id="Page-1" stroke="none" stroke-width="1" fill="none" fill-rule="evenodd">
        <g id="iPhone-X" transform="translate(-259.000000, -662.000000)" fill="#9CBB85">
            <path d="M263.309443,688.885556 L263.309443,675.727118 C263.309443,674.543274 262.344829,673.583606 261.154721,673.583606 C259.964943,673.583606 259,674.543274 259,675.727118 L259,688.885556 C259,690.0694 259.964943,691.029069 261.154721,691.029069 C262.344829,691.029069 263.309443,690.0694 263.309443,688.885556 L263.309443,688.885556 Z M268.524488,687.989514 C271.040528,689.046106 278.739305,690.145884 280.201061,689.564346 C280.973477,688.865776 282.915232,684.470949 284.269845,680.737109 C284.365449,680.473044 284.543471,680.246231 284.777536,680.089968 C285.873359,679.357771 286.44105,678.519751 286.335226,677.790521 C286.249841,677.20272 285.718743,676.701622 284.914349,676.450084 C283.249847,675.928547 279.166557,675.028548 279.125349,675.019647 C278.661174,674.917449 278.287658,674.575912 278.1459,674.124264 C278.004472,673.672946 278.116559,673.180749 278.440295,672.833937 C281.417872,669.643063 281.945673,666.356256 281.369411,665.041533 C281.192378,664.638017 281.008422,664.638017 280.909851,664.638017 C280.256446,664.638017 279.950842,665.092632 279.275678,667.07065 C278.48546,669.383943 275.756454,672.144927 272.484811,673.940968 C270.897451,674.811955 269.309102,675.949645 268.524488,676.53382 L268.524488,687.989514 Z M278.535899,692.329616 C274.444368,692.329616 268.019764,690.974674 266.429108,689.847203 C266.079987,689.599621 265.872625,689.199402 265.872625,688.772809 L265.872625,675.881404 C265.872625,675.477888 266.058229,675.09679 266.37636,674.84657 C266.473613,674.770087 268.787895,672.956244 271.204044,671.630972 C274.204368,669.983612 276.272716,667.663067 276.764913,666.221751 C277.373154,664.440215 278.206229,662 280.909851,662 C282.192926,662 283.24655,662.724284 283.800066,663.98692 C284.922591,666.547464 283.740395,670.103942 281.76897,672.915365 C283.096221,673.226573 284.74358,673.630748 285.710172,673.933385 C287.510499,674.496461 288.725332,675.797668 288.959727,677.413379 C289.200715,679.073266 288.352475,680.733813 286.622039,682.021832 C285.352151,685.480068 283.130836,690.961487 281.518092,691.858518 C280.922378,692.189836 279.848974,692.329616 278.535899,692.329616 L278.535899,692.329616 Z" id="thumbs-up"></path>
        </g>
    </g>
</svg>